<svg xmlns="http://www.w3.org/2000/svg" viewBox="0 0 150 150"><defs><linearGradient id="A" x1="75" y1="150" x2="75" gradientUnits="userSpaceOnUse"><stop offset="0" stop-color="#594b96"/><stop offset="1" stop-color="#743a8d"/></linearGradient></defs><circle cx="75" cy="75" r="75" fill="url(#A)"/><path d="M105.63 88.1a5.48 5.48 0 00-1.37.24 8.32 8.32 0 01-1.84.3 2.24 2.24 0 01-2.19-1.19 8.45 8.45 0 01-.53-3.61v-8.9h5c2.13 0 3.2-1.07 3.2-3.32s-1.07-3.32-3.2-3.32h-5v-5.22c0-2.13-1.31-3.2-4-3.2s-4 1.07-4 3.2v5.22h-2.02c-2.14 0-3.21 1.07-3.21 3.32s1.07 3.32 3.21 3.32h2.07v8.9c0 2.72.12 5.27 1.31 7.41 1.3 2.37 3.85 4.09 8.12 4.09a12.47 12.47 0 005.87-1.34 2.49 2.49 0 001.42-2.31c0-1.27-.65-3.59-2.84-3.59zM81.58 71c0-2.14-1.3-3.2-4-3.2s-4 1.06-4 3.2v21c0 2.13 1.3 3.2 4 3.2s4-1.07 4-3.2zm.71-11.06a4.69 4.69 0 00-9.37 0 4.69 4.69 0 009.37 0zm-27.12 7.83a10.05 10.05 0 00-5.7 1.48V57.86c0-2.13-1.3-3.2-4-3.2s-4 1.07-4 3.2v30c0 2 0 4 2.72 5.51a17.75 17.75 0 008.78 2c9.25 0 14.41-5.58 14.41-14.23S62.4 67.77 55.17 67.77zm-2.08 21.16a7.16 7.16 0 01-3.62-.88V75.36a6.08 6.08 0 013.74-1.19c3.67 0 6.11 2.73 6.11 7.47s-2.38 7.29-6.23 7.29z" fill="#fff"/></svg>